<svg xmlns="http://www.w3.org/2000/svg" class="desktop" aria-label="AWS - Austria Wirtschaftsservice" viewBox="0 0 245.2 56.7"><style>.st0{fill:#fff}</style><path class="st0" d="M64.6 27.6c.1-2 1.5-2.9 3.5-2.9 1.5 0 3.1.5 3.1 2.7V32c0 .4.2.6.6.6.1 0 .2 0 .3-.1v.9c-.2 0-.4.1-.7.1-1.1 0-1.2-.6-1.2-1.5-.7 1.1-1.5 1.7-3.1 1.7s-2.9-.8-2.9-2.5c0-2.4 2.3-2.5 4.6-2.7.9-.1 1.3-.2 1.3-1.2 0-1.4-1-1.8-2.2-1.8-1.3 0-2.2.6-2.3 2h-1zm5.6 1.2c-.2.2-.6.3-.9.4-1.8.3-4 .3-4 2 0 1 .9 1.7 1.9 1.7 1.6 0 3-1 3-2.7v-1.4zm10.1 4.7h-1V32c-.5 1.1-1.7 1.8-2.9 1.8-2.1 0-3-1.3-3-3.2V25h1v5.6c0 1.5.6 2.3 2.3 2.3 1.8 0 2.6-1.7 2.6-3.4V25h1v8.5zm7.2-6c-.1-1.3-1-1.9-2.2-1.9-.9 0-2 .4-2 1.5 0 .9 1.1 1.3 1.8 1.4l1.4.3c1.2.2 2.4.9 2.4 2.4 0 1.9-1.8 2.6-3.4 2.6-2 0-3.3-.9-3.5-3h1c.1 1.4 1.1 2.1 2.5 2.1 1 0 2.3-.4 2.3-1.6 0-1-.9-1.3-1.9-1.6l-1.3-.3c-1.4-.4-2.4-.8-2.4-2.3 0-1.7 1.7-2.4 3.2-2.4 1.7 0 3.1.9 3.1 2.7h-1zM92 25h1.7v.9H92v5.8c0 .7.1 1.1.8 1.1h.9v.9h-.9c-1.4 0-1.9-.5-1.9-1.9V26h-1.5v-1H91v-2.6h1V25zm3.2 0h1v2c.5-1.4 1.7-2.2 3.2-2.1v1c-1.9-.1-3.2 1.3-3.2 3.1v4.5h-1V25zm5.4-3.3h1v1.7h-1v-1.7zm0 3.3h1v8.5h-1V25zm3.1 2.6c.1-2 1.5-2.9 3.5-2.9 1.5 0 3.1.5 3.1 2.7V32c0 .4.2.6.6.6.1 0 .2 0 .3-.1v.9c-.2 0-.4.1-.7.1-1.1 0-1.2-.6-1.2-1.5-.7 1.1-1.5 1.7-3.1 1.7s-2.9-.8-2.9-2.5c0-2.4 2.3-2.5 4.6-2.7.9-.1 1.3-.2 1.3-1.2 0-1.4-1-1.8-2.2-1.8-1.3 0-2.2.6-2.3 2h-1zm5.5 1.2c-.2.2-.6.3-.9.4-1.8.3-4 .3-4 2 0 1 .9 1.7 1.9 1.7 1.6 0 3-1 3-2.7v-1.4zm7.2-3.8h1.1l2.2 7.3 2.1-7.3h1.2l2.1 7.3 2.2-7.3h1.1l-2.8 8.5h-1.1l-2.1-7.2-2.1 7.2h-1.2zm13.3-3.3h1v1.7h-1v-1.7zm0 3.3h1v8.5h-1V25zm3.1 0h1v2c.5-1.4 1.7-2.2 3.2-2.1v1c-1.9-.1-3.2 1.3-3.2 3.1v4.5h-1V25zm7.5 0h1.7v.9h-1.7v5.8c0 .7.1 1.1.8 1.1h.9v.9h-.9c-1.4 0-1.9-.5-1.8-1.9V26h-1.5v-1h1.5v-2.6h1V25zm8.3 2.5c-.1-1.3-1-1.9-2.2-1.9-.9 0-2 .4-2 1.5 0 .9 1.1 1.3 1.8 1.4l1.4.3c1.2.2 2.4.9 2.4 2.4 0 1.9-1.8 2.6-3.4 2.6-2 0-3.3-.9-3.5-3h1c.1 1.4 1.1 2.1 2.5 2.1 1 0 2.3-.4 2.3-1.6 0-1-.9-1.3-1.9-1.6l-1.3-.3c-1.4-.4-2.4-.8-2.4-2.3 0-1.7 1.7-2.4 3.2-2.4 1.7 0 3.1.9 3.1 2.7h-1zm8.9.1c-.3-1.3-1.1-2.1-2.4-2.1-2 0-3 1.8-3 3.6s1 3.6 3 3.6c1.3 0 2.3-1 2.5-2.4h1c-.3 2-1.6 3.3-3.5 3.3-2.6 0-4-2.1-4-4.5s1.4-4.5 4-4.5c1.8 0 3.2 1 3.5 2.9h-1.1zm2.7-5.9h1v4.7c.4-1 1.5-1.7 2.7-1.7 2.4 0 3.1 1.3 3.1 3.3v5.5h-1v-5.3c0-1.5-.5-2.6-2.2-2.6-1.7 0-2.6 1.3-2.7 2.9v5h-1V21.7zm8.9 5.9c.1-2 1.5-2.9 3.5-2.9 1.5 0 3.1.5 3.1 2.7V32c0 .4.2.6.6.6.1 0 .2 0 .3-.1v.9c-.2 0-.4.1-.7.1-1.1 0-1.2-.6-1.2-1.5-.7 1.1-1.5 1.7-3.1 1.7s-2.9-.8-2.9-2.5c0-2.4 2.3-2.5 4.6-2.7.9-.1 1.3-.2 1.3-1.2 0-1.4-1-1.8-2.2-1.8-1.3 0-2.2.6-2.3 2h-1zm5.5 1.2c-.2.2-.6.3-.9.4-1.8.3-4 .3-4 2 0 1 .9 1.7 1.9 1.7 1.6 0 3-1 3-2.7v-1.4zm6.4-3h-1.7v7.7h-1v-7.7h-1.5V25h1.5v-.8c0-1.5.4-2.5 2.1-2.5.3 0 .5 0 .9.1v.9c-.3-.1-.5-.1-.8-.1-1.2 0-1.1.7-1.1 1.7v.7h1.7v.8zm3.3-.8h1.7v.9h-1.7v5.8c0 .7.1 1.1.8 1.1h.9v.9h-.9c-1.4 0-1.9-.5-1.8-1.9V26h-1.5v-1h1.5v-2.6h1V25zm8.3 2.5c0-1.3-1-1.9-2.2-1.9-.9 0-2 .4-2 1.5 0 .9 1.1 1.3 1.8 1.4l1.4.3c1.2.2 2.4.9 2.4 2.4 0 1.9-1.8 2.6-3.4 2.6-2 0-3.3-.9-3.5-3h1c.1 1.4 1.1 2.1 2.5 2.1 1 0 2.3-.4 2.3-1.6 0-1-.9-1.3-1.9-1.6l-1.3-.3c-1.4-.4-2.4-.8-2.4-2.3 0-1.7 1.7-2.4 3.2-2.4 1.7 0 3.1.9 3.1 2.7h-1zm8.1 0c-.1-1.3-1-1.9-2.2-1.9-.9 0-2 .4-2 1.5 0 .9 1.1 1.3 1.8 1.4l1.4.3c1.2.2 2.4.9 2.4 2.4 0 1.9-1.8 2.6-3.4 2.6-2 0-3.3-.9-3.5-3h1c.1 1.4 1.1 2.1 2.5 2.1 1 0 2.3-.4 2.3-1.6 0-1-.9-1.3-1.9-1.6l-1.3-.3c-1.4-.4-2.4-.8-2.4-2.3 0-1.7 1.7-2.4 3.2-2.4 1.7 0 3.1.9 3.1 2.7h-1zm3.6 2c0 1.5.8 3.4 2.8 3.4 1.5 0 2.3-.9 2.7-2.2h1c-.4 1.9-1.6 3.1-3.7 3.1-2.7 0-3.9-2.1-3.9-4.5 0-2.2 1.1-4.5 3.9-4.5 2.7 0 3.8 2.4 3.8 4.8h-6.6zm5.5-.9c0-1.6-1-3-2.7-3-1.7 0-2.6 1.5-2.8 3h5.5zm2.7-3.6h1v2c.5-1.4 1.7-2.2 3.2-2.1v1c-1.9-.1-3.2 1.3-3.2 3.1v4.5h-1V25zm4.9 0h1.2l2.6 7.4h.1l2.6-7.4h1.1l-3.2 8.5h-1.1zm8.8-3.3h1v1.7h-1v-1.7zm0 3.3h1v8.5h-1V25zm9.1 2.6c-.3-1.3-1.1-2.1-2.4-2.1-2 0-3 1.8-3 3.6s1 3.6 3 3.6c1.3 0 2.3-1 2.5-2.4h1c-.3 2-1.6 3.3-3.5 3.3-2.6 0-4-2.1-4-4.5s1.4-4.5 4-4.5c1.8 0 3.2 1 3.5 2.9h-1.1zm3.4 1.9c0 1.5.8 3.4 2.8 3.4 1.5 0 2.3-.9 2.7-2.2h1c-.4 1.9-1.6 3.1-3.7 3.1-2.7 0-3.9-2.1-3.9-4.5 0-2.2 1.1-4.5 3.9-4.5 2.7 0 3.8 2.4 3.8 4.8h-6.6zm5.5-.9c0-1.6-1-3-2.7-3-1.7 0-2.6 1.5-2.8 3h5.5zM28.3 0C12.7 0 0 12.7 0 28.3 0 44 12.7 56.7 28.3 56.7 44 56.7 56.7 44 56.7 28.3 56.7 12.7 44 0 28.3 0zM16.5 33.5c-.1-.3-.2-.7-.2-1-.9.9-2.2 1.3-3.5 1.3-2 0-3.6-1-3.6-3.2 0-3.4 3.8-3.2 6.2-3.7.6-.1.9-.3.9-1 0-.8-1-1.1-1.7-1.1-1 0-1.6.4-1.7 1.3H9.6c.1-1.4.7-2.3 1.7-2.8.9-.5 2.2-.7 3.4-.7 2.5 0 4.9.6 4.9 3.6v4.6c0 .9 0 1.9.4 2.7h-3.5zm17.3 0h-3.5l-1.7-7-1.7 7h-3.5l-3.3-10.6h3.5l1.8 6.9 1.5-6.9h3.3l1.6 6.8 1.7-6.8H37l-3.2 10.6zm8.6.3c-2.5 0-5.1-.8-5.2-3.8h3.3c0 .5.2.9.6 1.2.3.2.8.4 1.3.4.7 0 1.6-.3 1.6-1.1s-1.1-1-1.7-1.1c-2.2-.6-4.9-.6-4.9-3.5 0-2.6 2.8-3.2 4.8-3.2 2.3 0 4.8.7 4.9 3.4h-3.2c0-.4-.2-.7-.4-.9-.3-.2-.7-.3-1.1-.3-.6 0-1.5.1-1.5.8 0 1 2.3 1.2 3.9 1.5 2.1.4 2.7 2 2.7 2.9-.1 2.8-2.8 3.7-5.1 3.7z"></path><path class="st0" d="M12.6 30.5c0 .9.7 1.2 1.5 1.2 1.7 0 2.2-.9 2.1-3.1-.5.3-1.4.4-2.1.6-.8.1-1.5.4-1.5 1.3z"></path></svg>